<?xml version="1.0" encoding="iso-8859-1"?>
<!-- Generator: Adobe Illustrator 18.1.1, SVG Export Plug-In . SVG Version: 6.00 Build 0)  -->
<svg version="1.1" id="Capa_1" xmlns="http://www.w3.org/2000/svg" xmlns:xlink="http://www.w3.org/1999/xlink" x="0px" y="0px"
	 viewBox="0 0 329.488 329.488" style="enable-background:new 0 0 329.488 329.488;" xml:space="preserve">
<g>
	<g>
		<path style="fill:#8b7a95;" d="M230.687,185.918c-2.181-2.187-5.091-3.389-8.175-3.389l-46.531,0.005v-38.661
			c-0.005-3.095-1.213-5.999-3.394-8.18c-2.187-2.186-5.091-3.389-8.175-3.389c-3.089,0.005-5.994,1.207-8.169,3.389
			c-2.181,2.181-3.389,5.086-3.389,8.169v50.224c0.005,6.375,5.194,11.563,11.563,11.563l58.095-0.005
			c3.084,0,5.988-1.202,8.175-3.389c2.181-2.181,3.383-5.08,3.394-8.164C234.065,190.998,232.863,188.094,230.687,185.918z"/>
		<path style="fill:#8b7a95;" d="M117.739,49.648c2.181-2.187,3.389-5.091,3.389-8.18c0-3.04-1.235-6.021-3.389-8.164
			C104.718,20.266,87.4,13.092,68.973,13.092s-35.746,7.174-48.767,20.206C7.174,46.314,0,63.637,0,82.065
			c0,18.422,7.174,35.746,20.212,48.778c2.187,2.17,5.091,3.372,8.159,3.372c3.073,0,5.978-1.202,8.175-3.389L117.739,49.648z
			 M23.127,82.059c0-12.243,4.765-23.752,13.429-32.411c8.659-8.67,20.168-13.44,32.417-13.44c8.327,0,16.241,2.159,23.219,6.282
			l-62.789,62.778C25.281,98.289,23.127,90.381,23.127,82.059z"/>
		<path style="fill:#8b7a95;" d="M309.281,33.298c-13.016-13.037-30.334-20.212-48.761-20.212c-18.422,0-35.746,7.174-48.772,20.201
			c-2.181,2.181-3.389,5.086-3.389,8.18c0,3.1,1.207,6.005,3.389,8.18l81.194,81.189c2.186,2.176,5.086,3.378,8.169,3.378
			c3.079,0,5.978-1.202,8.169-3.389c13.032-13.032,20.206-30.345,20.206-48.767C329.477,63.626,322.297,46.303,309.281,33.298z
			 M300.079,105.268l-62.778-62.772c6.978-4.128,14.892-6.288,23.225-6.288c12.243,0,23.752,4.77,32.411,13.44
			c8.659,8.659,13.429,20.168,13.429,32.411C306.361,90.375,304.207,98.289,300.079,105.268z"/>
		<path style="fill:#8b7a95;" d="M260.618,270.8c17.96-21.609,28.784-49.343,28.784-79.568c0-68.733-55.924-124.658-124.658-124.658
			c-68.739,0-124.658,55.924-124.658,124.658c0,28.093,9.453,53.961,25.194,74.831l-32.558,32.558
			c-4.074,4.068-4.074,10.661,0,14.729c2.034,2.034,4.699,3.051,7.364,3.051s5.33-1.017,7.364-3.051l31.715-31.715
			c22.355,21.174,52.438,34.255,85.578,34.255c31.03,0,59.378-11.466,81.216-30.29l27.75,27.75c2.04,2.034,4.699,3.051,7.364,3.051
			s5.336-1.017,7.364-3.051c4.074-4.074,4.074-10.661,0-14.729L260.618,270.8z M63.207,191.232
			c0-55.99,45.552-101.536,101.536-101.536s101.531,45.547,101.531,101.536c0,26.097-9.981,49.86-26.227,67.863
			c-1.294,0.506-2.513,1.267-3.557,2.312c-1.093,1.093-1.838,2.377-2.344,3.731c-18.172,17.079-42.555,27.625-69.402,27.625
			C108.754,292.763,63.207,247.216,63.207,191.232z"/>
	</g>
</g>
<g>
</g>
<g>
</g>
<g>
</g>
<g>
</g>
<g>
</g>
<g>
</g>
<g>
</g>
<g>
</g>
<g>
</g>
<g>
</g>
<g>
</g>
<g>
</g>
<g>
</g>
<g>
</g>
<g>
</g>
</svg>
